<?xml version="1.0" encoding="UTF-8"?>
<!DOCTYPE svg PUBLIC "-//W3C//DTD SVG 1.1//EN" "http://www.w3.org/Graphics/SVG/1.1/DTD/svg11.dtd">
<!-- Creator: CorelDRAW 2021.5 -->
<svg xmlns="http://www.w3.org/2000/svg" xml:space="preserve" width="864px" height="864px" version="1.1" style="shape-rendering:geometricPrecision; text-rendering:geometricPrecision; image-rendering:optimizeQuality; fill-rule:evenodd; clip-rule:evenodd"
viewBox="0 0 47.08 47.08"
 xmlns:xlink="http://www.w3.org/1999/xlink"
 xmlns:xodm="http://www.corel.com/coreldraw/odm/2003">
 <defs>
  <style type="text/css">
   <![CDATA[
    .str0 {stroke:black;stroke-width:0.11;stroke-miterlimit:22.9256}
    .fil0 {fill:black}
    .fil1 {fill:white;fill-rule:nonzero}
   ]]>
  </style>
 </defs>
 <g id="Layer_x0020_1">
  <metadata id="CorelCorpID_0Corel-Layer"/>
  <rect class="fil0 str0" x="0.05" y="0.05" width="46.97" height="46.97" rx="10.89" ry="10.89"/>
  <path class="fil1" d="M27.51 19.25l0 -5.39 -7.94 0 0 7.45 7.94 0 6.11 0 0 3.19 1.84 0 0 16.67 -5.41 0 -2.54 0 -1.64 0 0 -8.72 1.64 0 0 -3.2 -7.94 0 -7.94 0 0 -23.33 23.83 0 0 10.27 -1.84 0 0 3.06 -6.11 0zm-7.94 11.66l0 10.26 -7.94 0 0 -10.26 7.94 0z"/>
 </g>
</svg>
