<?xml version="1.0" encoding="UTF-8"?>
<!DOCTYPE svg PUBLIC "-//W3C//DTD SVG 1.1//EN" "http://www.w3.org/Graphics/SVG/1.1/DTD/svg11.dtd">
<!-- Creator: CorelDRAW 2021.5 -->
<svg xmlns="http://www.w3.org/2000/svg" xml:space="preserve" width="1328px" height="1328px" version="1.1" style="shape-rendering:geometricPrecision; text-rendering:geometricPrecision; image-rendering:optimizeQuality; fill-rule:evenodd; clip-rule:evenodd"
viewBox="0 0 213.28 213.28"
 xmlns:xlink="http://www.w3.org/1999/xlink"
 xmlns:xodm="http://www.corel.com/coreldraw/odm/2003">
 <defs>
  <style type="text/css">
   <![CDATA[
    .str0 {stroke:black;stroke-width:0.14;stroke-miterlimit:22.9256}
    .fil0 {fill:#141338}
    .fil1 {fill:white;fill-rule:nonzero}
   ]]>
  </style>
 </defs>
 <g id="Layer_x0020_1">
  <metadata id="CorelCorpID_0Corel-Layer"/>
  <rect class="fil0 str0" x="0.07" y="0.07" width="213.13" height="213.13" rx="189.74" ry="189.74"/>
  <path class="fil1" d="M121.41 89.55l0 -12.46 -27.15 0 0 -29.55 56.7 0 0 42.01 -29.55 0zm-29.52 -12.46l-0.02 0 0 14.78 27.97 0 0 0.05 31.12 0 0 73.81 -29.55 0 0 -44.32 -24.42 0 0 -0.02 -34.67 0 0 -73.85 29.57 0 0 29.55zm-0.02 46.67l0 41.97 -29.55 0 0 -41.97 29.55 0z"/>
 </g>
</svg>
